<mxfile host="www.draw.io" modified="2020-01-23T16:43:55.105Z" agent="Mozilla/5.0 (Macintosh; Intel Mac OS X 10_14_6) AppleWebKit/537.36 (KHTML, like Gecko) Chrome/79.0.3945.130 Safari/537.36" etag="Cl78Ei4PPAnXWfVo9zaS" version="12.5.6" type="github">
  <diagram id="C5RBs43oDa-KdzZeNtuy" name="Page-1">
    <mxGraphModel dx="1789" dy="970" grid="1" gridSize="10" guides="1" tooltips="1" connect="1" arrows="1" fold="1" page="1" pageScale="1" pageWidth="827" pageHeight="1169" math="0" shadow="0">
      <root>
        <mxCell id="WIyWlLk6GJQsqaUBKTNV-0"/>
        <mxCell id="WIyWlLk6GJQsqaUBKTNV-1" parent="WIyWlLk6GJQsqaUBKTNV-0"/>
        <mxCell id="7QKfN6v8jJkuGkPWbdks-1" value="User arrives at&lt;br&gt;PBS.org" style="triangle;whiteSpace=wrap;html=1;direction=south;" vertex="1" parent="WIyWlLk6GJQsqaUBKTNV-1">
          <mxGeometry x="330" y="70" width="180" height="90" as="geometry"/>
        </mxCell>
        <mxCell id="7QKfN6v8jJkuGkPWbdks-3" value="Where is user located?" style="ellipse;whiteSpace=wrap;html=1;aspect=fixed;" vertex="1" parent="WIyWlLk6GJQsqaUBKTNV-1">
          <mxGeometry x="373.5" y="200" width="93" height="93" as="geometry"/>
        </mxCell>
        <mxCell id="7QKfN6v8jJkuGkPWbdks-4" value="United States&lt;br&gt;" style="whiteSpace=wrap;html=1;aspect=fixed;" vertex="1" parent="WIyWlLk6GJQsqaUBKTNV-1">
          <mxGeometry x="130" y="373" width="67" height="67" as="geometry"/>
        </mxCell>
        <mxCell id="7QKfN6v8jJkuGkPWbdks-5" value="Canada&lt;br&gt;" style="whiteSpace=wrap;html=1;aspect=fixed;" vertex="1" parent="WIyWlLk6GJQsqaUBKTNV-1">
          <mxGeometry x="386.5" y="373" width="67" height="67" as="geometry"/>
        </mxCell>
        <mxCell id="7QKfN6v8jJkuGkPWbdks-6" value="Somewhere else&lt;br&gt;" style="whiteSpace=wrap;html=1;aspect=fixed;" vertex="1" parent="WIyWlLk6GJQsqaUBKTNV-1">
          <mxGeometry x="650" y="360" width="80" height="80" as="geometry"/>
        </mxCell>
        <mxCell id="7QKfN6v8jJkuGkPWbdks-8" value="Sorry, friend" style="rhombus;whiteSpace=wrap;html=1;" vertex="1" parent="WIyWlLk6GJQsqaUBKTNV-1">
          <mxGeometry x="650" y="460" width="80" height="80" as="geometry"/>
        </mxCell>
        <mxCell id="7QKfN6v8jJkuGkPWbdks-9" value="??" style="shape=process;whiteSpace=wrap;html=1;backgroundOutline=1;" vertex="1" parent="WIyWlLk6GJQsqaUBKTNV-1">
          <mxGeometry x="360" y="470" width="120" height="60" as="geometry"/>
        </mxCell>
        <mxCell id="7QKfN6v8jJkuGkPWbdks-10" value="How to determine?" style="rounded=1;whiteSpace=wrap;html=1;" vertex="1" parent="WIyWlLk6GJQsqaUBKTNV-1">
          <mxGeometry x="360" y="310" width="120" height="40" as="geometry"/>
        </mxCell>
      </root>
    </mxGraphModel>
  </diagram>
</mxfile>
